<svg width="40" height="40" viewBox="0 0 40 40" fill="none" xmlns="http://www.w3.org/2000/svg">
<g clip-path="url(#clip0)">
<g filter="url(#filter0_ddi)">
<circle cx="19.9999" cy="19.9999" r="17.7778" fill="#25DE59"/>
</g>
<mask id="mask0" mask-type="alpha" maskUnits="userSpaceOnUse" x="2" y="2" width="36" height="36">
<circle cx="19.9999" cy="19.9999" r="17.7778" fill="white"/>
</mask>
<g mask="url(#mask0)">
<path d="M22.2222 2.22217H37.7777V17.7777L22.2222 2.22217Z" fill="url(#paint0_linear)"/>
<path d="M22.2222 1.72217H21.0151L21.8686 2.57572L37.4242 18.1313L38.2777 18.9848V17.7777V2.22217V1.72217H37.7777H22.2222Z" stroke="black" stroke-opacity="0.04"/>
<path d="M13.333 2.22217H37.7775V26.6666L13.333 2.22217Z" fill="url(#paint1_linear)"/>
<path d="M13.333 1.72217H12.1259L12.9795 2.57572L37.4239 27.0202L38.2775 27.8737V26.6666V2.22217V1.72217H37.7775H13.333Z" stroke="black" stroke-opacity="0.04"/>
<path d="M4.44434 2.22217H37.7777V35.5555L4.44434 2.22217Z" fill="url(#paint2_linear)"/>
<path d="M4.44434 1.72217H3.23723L4.09078 2.57572L37.4241 35.9091L38.2777 36.7626V35.5555V2.22217V1.72217H37.7777H4.44434Z" stroke="black" stroke-opacity="0.04"/>
<path d="M-4.44482 2.22217H37.7774V44.4444L-4.44482 2.22217Z" fill="url(#paint3_linear)"/>
<path d="M-4.44482 1.72217H-5.65193L-4.79838 2.57572L37.4238 44.7979L38.2774 45.6515V44.4444V2.22217V1.72217H37.7774H-4.44482Z" stroke="black" stroke-opacity="0.04"/>
<path d="M-13.3335 2.22217H37.7776V53.3333L-13.3335 2.22217Z" fill="url(#paint4_linear)"/>
<path d="M-13.3335 1.72217H-14.5406L-13.687 2.57572L37.4241 53.6868L38.2776 54.5404V53.3333V2.22217V1.72217H37.7776H-13.3335Z" stroke="black" stroke-opacity="0.04"/>
<path d="M2.22217 17.7777L2.22217 2.22216L17.7777 2.22215L2.22217 17.7777Z" fill="url(#paint5_linear)"/>
<path d="M1.72217 17.7777L1.72217 18.9848L2.57572 18.1313L18.1313 2.57571L18.9848 1.72215L17.7777 1.72215L2.22217 1.72215L1.72217 1.72215L1.72217 2.22216L1.72217 17.7777Z" stroke="black" stroke-opacity="0.04"/>
<path d="M2.22217 26.6666L2.22217 2.22218L26.6666 2.22218L2.22217 26.6666Z" fill="url(#paint6_linear)"/>
<path d="M1.72217 26.6666L1.72217 27.8737L2.57572 27.0202L27.0202 2.57574L27.8737 1.72218L26.6666 1.72218L2.22217 1.72218L1.72217 1.72218L1.72217 2.22218L1.72217 26.6666Z" stroke="black" stroke-opacity="0.04"/>
<path d="M2.22217 35.5555L2.22217 2.22221L35.5555 2.22221L2.22217 35.5555Z" fill="url(#paint7_linear)"/>
<path d="M1.72217 35.5555L1.72217 36.7626L2.57572 35.9091L35.9091 2.57576L36.7626 1.7222L35.5555 1.7222L2.22217 1.72221L1.72217 1.72221L1.72217 2.22221L1.72217 35.5555Z" stroke="black" stroke-opacity="0.04"/>
<path d="M2.22217 44.4445L2.22217 2.22223L44.4444 2.22223L2.22217 44.4445Z" fill="url(#paint8_linear)"/>
<path d="M1.72217 44.4445L1.72217 45.6516L2.57572 44.798L44.7979 2.57578L45.6515 1.72223L44.4444 1.72223L2.22217 1.72223L1.72217 1.72223L1.72217 2.22223L1.72217 44.4445Z" stroke="black" stroke-opacity="0.04"/>
<path d="M2.22217 53.3333L2.22217 2.22214L53.3333 2.22214L2.22217 53.3333Z" fill="url(#paint9_linear)"/>
<path d="M1.72217 53.3333L1.72217 54.5404L2.57572 53.6868L53.6868 2.5757L54.5404 1.72214L53.3333 1.72214L2.22217 1.72215L1.72217 1.72215L1.72217 2.22215L1.72217 53.3333Z" stroke="black" stroke-opacity="0.04"/>
<g filter="url(#filter1_i)">
<path fill-rule="evenodd" clip-rule="evenodd" d="M19.9999 36.7222C29.082 36.7222 36.4444 29.3598 36.4444 20.2778C36.4444 11.1958 29.082 3.83333 19.9999 3.83333C10.9179 3.83333 3.5555 11.1958 3.5555 20.2778C3.5555 29.3598 10.9179 36.7222 19.9999 36.7222ZM19.9999 38.0556C29.8183 38.0556 37.7777 30.0962 37.7777 20.2778C37.7777 10.4594 29.8183 2.5 19.9999 2.5C10.1816 2.5 2.22217 10.4594 2.22217 20.2778C2.22217 30.0962 10.1816 38.0556 19.9999 38.0556Z" fill="black" fill-opacity="0.12"/>
</g>
<g filter="url(#filter2_i)">
<path fill-rule="evenodd" clip-rule="evenodd" d="M19.9999 36.4444C29.082 36.4444 36.4444 29.082 36.4444 19.9999C36.4444 10.9179 29.082 3.5555 19.9999 3.5555C10.9179 3.5555 3.5555 10.9179 3.5555 19.9999C3.5555 29.082 10.9179 36.4444 19.9999 36.4444ZM19.9999 37.7777C29.8183 37.7777 37.7777 29.8183 37.7777 19.9999C37.7777 10.1816 29.8183 2.22217 19.9999 2.22217C10.1816 2.22217 2.22217 10.1816 2.22217 19.9999C2.22217 29.8183 10.1816 37.7777 19.9999 37.7777Z" fill="white"/>
</g>
</g>
</g>
<defs>
<filter id="filter0_ddi" x="-29.7778" y="-17.7778" width="99.5556" height="99.5556" filterUnits="userSpaceOnUse" color-interpolation-filters="sRGB">
<feFlood flood-opacity="0" result="BackgroundImageFix"/>
<feColorMatrix in="SourceAlpha" type="matrix" values="0 0 0 0 0 0 0 0 0 0 0 0 0 0 0 0 0 0 127 0"/>
<feOffset dy="12"/>
<feGaussianBlur stdDeviation="16"/>
<feColorMatrix type="matrix" values="0 0 0 0 0.0823529 0 0 0 0 0.0588235 0 0 0 0 0.188235 0 0 0 0.04 0"/>
<feBlend mode="normal" in2="BackgroundImageFix" result="effect1_dropShadow"/>
<feColorMatrix in="SourceAlpha" type="matrix" values="0 0 0 0 0 0 0 0 0 0 0 0 0 0 0 0 0 0 127 0"/>
<feOffset dy="4"/>
<feGaussianBlur stdDeviation="4"/>
<feColorMatrix type="matrix" values="0 0 0 0 0 0 0 0 0 0.788235 0 0 0 0 0 0 0 0 0.16 0"/>
<feBlend mode="normal" in2="effect1_dropShadow" result="effect2_dropShadow"/>
<feBlend mode="normal" in="SourceGraphic" in2="effect2_dropShadow" result="shape"/>
<feColorMatrix in="SourceAlpha" type="matrix" values="0 0 0 0 0 0 0 0 0 0 0 0 0 0 0 0 0 0 127 0" result="hardAlpha"/>
<feOffset dy="2"/>
<feGaussianBlur stdDeviation="4"/>
<feComposite in2="hardAlpha" operator="arithmetic" k2="-1" k3="1"/>
<feColorMatrix type="matrix" values="0 0 0 0 1 0 0 0 0 1 0 0 0 0 1 0 0 0 0.4 0"/>
<feBlend mode="normal" in2="shape" result="effect3_innerShadow"/>
</filter>
<filter id="filter1_i" x="2.22217" y="2" width="35.5556" height="36.0556" filterUnits="userSpaceOnUse" color-interpolation-filters="sRGB">
<feFlood flood-opacity="0" result="BackgroundImageFix"/>
<feBlend mode="normal" in="SourceGraphic" in2="BackgroundImageFix" result="shape"/>
<feColorMatrix in="SourceAlpha" type="matrix" values="0 0 0 0 0 0 0 0 0 0 0 0 0 0 0 0 0 0 127 0" result="hardAlpha"/>
<feOffset dy="-0.5"/>
<feGaussianBlur stdDeviation="0.25"/>
<feComposite in2="hardAlpha" operator="arithmetic" k2="-1" k3="1"/>
<feColorMatrix type="matrix" values="0 0 0 0 0 0 0 0 0 0 0 0 0 0 0 0 0 0 0.06 0"/>
<feBlend mode="normal" in2="shape" result="effect1_innerShadow"/>
</filter>
<filter id="filter2_i" x="2.22217" y="1.72217" width="35.5556" height="36.0556" filterUnits="userSpaceOnUse" color-interpolation-filters="sRGB">
<feFlood flood-opacity="0" result="BackgroundImageFix"/>
<feBlend mode="normal" in="SourceGraphic" in2="BackgroundImageFix" result="shape"/>
<feColorMatrix in="SourceAlpha" type="matrix" values="0 0 0 0 0 0 0 0 0 0 0 0 0 0 0 0 0 0 127 0" result="hardAlpha"/>
<feOffset dy="-0.5"/>
<feGaussianBlur stdDeviation="0.25"/>
<feComposite in2="hardAlpha" operator="arithmetic" k2="-1" k3="1"/>
<feColorMatrix type="matrix" values="0 0 0 0 0 0 0 0 0 0 0 0 0 0 0 0 0 0 0.06 0"/>
<feBlend mode="normal" in2="shape" result="effect1_innerShadow"/>
</filter>
<linearGradient id="paint0_linear" x1="37.7777" y1="2.22216" x2="29.9999" y2="9.99995" gradientUnits="userSpaceOnUse">
<stop stop-opacity="0"/>
<stop offset="1" stop-opacity="0.02"/>
</linearGradient>
<linearGradient id="paint1_linear" x1="37.7774" y1="2.22216" x2="25.5552" y2="14.4444" gradientUnits="userSpaceOnUse">
<stop stop-opacity="0"/>
<stop offset="1" stop-opacity="0.02"/>
</linearGradient>
<linearGradient id="paint2_linear" x1="37.7777" y1="2.22215" x2="21.111" y2="18.8888" gradientUnits="userSpaceOnUse">
<stop stop-opacity="0"/>
<stop offset="1" stop-opacity="0.02"/>
</linearGradient>
<linearGradient id="paint3_linear" x1="37.7774" y1="2.22215" x2="16.6663" y2="23.3333" gradientUnits="userSpaceOnUse">
<stop stop-opacity="0"/>
<stop offset="1" stop-opacity="0.02"/>
</linearGradient>
<linearGradient id="paint4_linear" x1="37.7776" y1="2.22214" x2="12.2221" y2="27.7777" gradientUnits="userSpaceOnUse">
<stop stop-opacity="0"/>
<stop offset="1" stop-opacity="0.02"/>
</linearGradient>
<linearGradient id="paint5_linear" x1="2.22216" y1="2.22216" x2="9.99995" y2="9.99993" gradientUnits="userSpaceOnUse">
<stop stop-opacity="0"/>
<stop offset="1" stop-opacity="0.02"/>
</linearGradient>
<linearGradient id="paint6_linear" x1="2.22216" y1="2.2222" x2="14.4444" y2="14.4444" gradientUnits="userSpaceOnUse">
<stop stop-opacity="0"/>
<stop offset="1" stop-opacity="0.02"/>
</linearGradient>
<linearGradient id="paint7_linear" x1="2.22215" y1="2.22223" x2="18.8888" y2="18.8889" gradientUnits="userSpaceOnUse">
<stop stop-opacity="0"/>
<stop offset="1" stop-opacity="0.02"/>
</linearGradient>
<linearGradient id="paint8_linear" x1="2.22215" y1="2.22225" x2="23.3333" y2="23.3333" gradientUnits="userSpaceOnUse">
<stop stop-opacity="0"/>
<stop offset="1" stop-opacity="0.02"/>
</linearGradient>
<linearGradient id="paint9_linear" x1="2.22214" y1="2.22217" x2="27.7777" y2="27.7777" gradientUnits="userSpaceOnUse">
<stop stop-opacity="0"/>
<stop offset="1" stop-opacity="0.02"/>
</linearGradient>
<clipPath id="clip0">
<path d="M0 0H40V40H0V0Z" fill="white"/>
</clipPath>
</defs>
</svg>
