<svg width="112" height="112" viewBox="0 0 112 112" fill="none" xmlns="http://www.w3.org/2000/svg">
    <g filter="url(#filter0_ddd)">
        <circle cx="56" cy="48" r="32" fill="#FFBA54"/>
        <circle cx="56" cy="48" r="32" fill="url(#paint0_linear)"/>
    </g>
    <mask id="mask0" maskUnits="userSpaceOnUse" x="24" y="16" width="64" height="64">
        <circle cx="56" cy="48" r="32" fill="white"/>
    </mask>
    <g mask="url(#mask0)">
        <path d="M60 16H88V44L60 16Z" fill="url(#paint1_linear)"/>
        <path d="M60 15.5H58.7929L59.6464 16.3536L87.6464 44.3536L88.5 45.2071V44V16V15.5H88H60Z" stroke="black" stroke-opacity="0.04"/>
        <path d="M44 16H88V60L44 16Z" fill="url(#paint2_linear)"/>
        <path d="M44 15.5H42.7929L43.6464 16.3536L87.6464 60.3536L88.5 61.2071V60V16V15.5H88H44Z" stroke="black" stroke-opacity="0.04"/>
        <path d="M28 16H88V76L28 16Z" fill="url(#paint3_linear)"/>
        <path d="M28 15.5H26.7929L27.6464 16.3536L87.6464 76.3536L88.5 77.2071V76V16V15.5H88H28Z" stroke="black" stroke-opacity="0.04"/>
        <path d="M12 16H88V92L12 16Z" fill="url(#paint4_linear)"/>
        <path d="M12 15.5H10.7929L11.6464 16.3536L87.6464 92.3536L88.5 93.2071V92V16V15.5H88H12Z" stroke="black" stroke-opacity="0.04"/>
        <path d="M-4 16H88V108L-4 16Z" fill="url(#paint5_linear)"/>
        <path d="M-4 15.5H-5.20711L-4.35355 16.3536L87.6464 108.354L88.5 109.207V108V16V15.5H88H-4Z" stroke="black" stroke-opacity="0.04"/>
        <path d="M24 44L24 16L52 16L24 44Z" fill="url(#paint6_linear)"/>
        <path d="M23.5 44L23.5 45.2071L24.3536 44.3536L52.3536 16.3536L53.2071 15.5L52 15.5L24 15.5L23.5 15.5L23.5 16L23.5 44Z" stroke="black" stroke-opacity="0.04"/>
        <path d="M24 60L24 16L68 16L24 60Z" fill="url(#paint7_linear)"/>
        <path d="M23.5 60L23.5 61.2071L24.3536 60.3536L68.3535 16.3536L69.2071 15.5L68 15.5L24 15.5L23.5 15.5L23.5 16L23.5 60Z" stroke="black" stroke-opacity="0.04"/>
        <path d="M24 76L24 16L84 16L24 76Z" fill="url(#paint8_linear)"/>
        <path d="M23.5 76L23.5 77.2071L24.3536 76.3536L84.3535 16.3536L85.2071 15.5L84 15.5L24 15.5L23.5 15.5L23.5 16L23.5 76Z" stroke="black" stroke-opacity="0.04"/>
        <path d="M24 92L24 16L100 16L24 92Z" fill="url(#paint9_linear)"/>
        <path d="M23.5 92L23.5 93.2071L24.3536 92.3536L100.354 16.3536L101.207 15.5L100 15.5L24 15.5L23.5 15.5L23.5 16L23.5 92Z" stroke="black" stroke-opacity="0.04"/>
        <path d="M24 108L24 16L116 16L24 108Z" fill="url(#paint10_linear)"/>
        <path d="M23.5 108L23.5 109.207L24.3536 108.354L116.354 16.3535L117.207 15.5L116 15.5L24 15.5L23.5 15.5L23.5 16L23.5 108Z" stroke="black" stroke-opacity="0.04"/>
        <g filter="url(#filter1_i)">
            <path fill-rule="evenodd" clip-rule="evenodd" d="M56 78.1C72.3476 78.1 85.6 64.8476 85.6 48.5C85.6 32.1524 72.3476 18.9 56 18.9C39.6524 18.9 26.4 32.1524 26.4 48.5C26.4 64.8476 39.6524 78.1 56 78.1ZM56 80.5C73.6731 80.5 88 66.1731 88 48.5C88 30.8269 73.6731 16.5 56 16.5C38.3269 16.5 24 30.8269 24 48.5C24 66.1731 38.3269 80.5 56 80.5Z" fill="black" fill-opacity="0.12"/>
        </g>
        <g filter="url(#filter2_i)">
            <path fill-rule="evenodd" clip-rule="evenodd" d="M56 77.6C72.3476 77.6 85.6 64.3476 85.6 48C85.6 31.6524 72.3476 18.4 56 18.4C39.6524 18.4 26.4 31.6524 26.4 48C26.4 64.3476 39.6524 77.6 56 77.6ZM56 80C73.6731 80 88 65.6731 88 48C88 30.3269 73.6731 16 56 16C38.3269 16 24 30.3269 24 48C24 65.6731 38.3269 80 56 80Z" fill="white"/>
        </g>
    </g>
    <defs>
        <filter id="filter0_ddd" x="0" y="0" width="112" height="112" filterUnits="userSpaceOnUse" color-interpolation-filters="sRGB">
            <feFlood flood-opacity="0" result="BackgroundImageFix"/>
            <feColorMatrix in="SourceAlpha" type="matrix" values="0 0 0 0 0 0 0 0 0 0 0 0 0 0 0 0 0 0 127 0"/>
            <feOffset dy="8"/>
            <feGaussianBlur stdDeviation="12"/>
            <feColorMatrix type="matrix" values="0 0 0 0 0.168627 0 0 0 0 0.235294 0 0 0 0 0.298039 0 0 0 0.12 0"/>
            <feBlend mode="normal" in2="BackgroundImageFix" result="effect1_dropShadow"/>
            <feColorMatrix in="SourceAlpha" type="matrix" values="0 0 0 0 0 0 0 0 0 0 0 0 0 0 0 0 0 0 127 0"/>
            <feOffset dy="4"/>
            <feGaussianBlur stdDeviation="4"/>
            <feColorMatrix type="matrix" values="0 0 0 0 0.168627 0 0 0 0 0.235294 0 0 0 0 0.298039 0 0 0 0.04 0"/>
            <feBlend mode="normal" in2="effect1_dropShadow" result="effect2_dropShadow"/>
            <feColorMatrix in="SourceAlpha" type="matrix" values="0 0 0 0 0 0 0 0 0 0 0 0 0 0 0 0 0 0 127 0"/>
            <feOffset/>
            <feGaussianBlur stdDeviation="0.5"/>
            <feColorMatrix type="matrix" values="0 0 0 0 0.168627 0 0 0 0 0.235294 0 0 0 0 0.298039 0 0 0 0.32 0"/>
            <feBlend mode="normal" in2="effect2_dropShadow" result="effect3_dropShadow"/>
            <feBlend mode="normal" in="SourceGraphic" in2="effect3_dropShadow" result="shape"/>
        </filter>
        <filter id="filter1_i" x="24" y="16" width="64" height="64.5" filterUnits="userSpaceOnUse" color-interpolation-filters="sRGB">
            <feFlood flood-opacity="0" result="BackgroundImageFix"/>
            <feBlend mode="normal" in="SourceGraphic" in2="BackgroundImageFix" result="shape"/>
            <feColorMatrix in="SourceAlpha" type="matrix" values="0 0 0 0 0 0 0 0 0 0 0 0 0 0 0 0 0 0 127 0" result="hardAlpha"/>
            <feOffset dy="-0.5"/>
            <feGaussianBlur stdDeviation="0.25"/>
            <feComposite in2="hardAlpha" operator="arithmetic" k2="-1" k3="1"/>
            <feColorMatrix type="matrix" values="0 0 0 0 0 0 0 0 0 0 0 0 0 0 0 0 0 0 0.06 0"/>
            <feBlend mode="normal" in2="shape" result="effect1_innerShadow"/>
        </filter>
        <filter id="filter2_i" x="24" y="15.5" width="64" height="64.5" filterUnits="userSpaceOnUse" color-interpolation-filters="sRGB">
            <feFlood flood-opacity="0" result="BackgroundImageFix"/>
            <feBlend mode="normal" in="SourceGraphic" in2="BackgroundImageFix" result="shape"/>
            <feColorMatrix in="SourceAlpha" type="matrix" values="0 0 0 0 0 0 0 0 0 0 0 0 0 0 0 0 0 0 127 0" result="hardAlpha"/>
            <feOffset dy="-0.5"/>
            <feGaussianBlur stdDeviation="0.25"/>
            <feComposite in2="hardAlpha" operator="arithmetic" k2="-1" k3="1"/>
            <feColorMatrix type="matrix" values="0 0 0 0 0 0 0 0 0 0 0 0 0 0 0 0 0 0 0.06 0"/>
            <feBlend mode="normal" in2="shape" result="effect1_innerShadow"/>
        </filter>
        <linearGradient id="paint0_linear" x1="56" y1="16" x2="56" y2="80" gradientUnits="userSpaceOnUse">
            <stop stop-color="#FF3841" stop-opacity="0"/>
            <stop offset="1" stop-color="#FF3841" stop-opacity="0.48"/>
        </linearGradient>
        <linearGradient id="paint1_linear" x1="88" y1="16" x2="74" y2="30" gradientUnits="userSpaceOnUse">
            <stop stop-opacity="0"/>
            <stop offset="1" stop-opacity="0.02"/>
        </linearGradient>
        <linearGradient id="paint2_linear" x1="88" y1="16" x2="66" y2="38" gradientUnits="userSpaceOnUse">
            <stop stop-opacity="0"/>
            <stop offset="1" stop-opacity="0.02"/>
        </linearGradient>
        <linearGradient id="paint3_linear" x1="88" y1="16" x2="58" y2="46" gradientUnits="userSpaceOnUse">
            <stop stop-opacity="0"/>
            <stop offset="1" stop-opacity="0.02"/>
        </linearGradient>
        <linearGradient id="paint4_linear" x1="88" y1="16" x2="50" y2="54" gradientUnits="userSpaceOnUse">
            <stop stop-opacity="0"/>
            <stop offset="1" stop-opacity="0.02"/>
        </linearGradient>
        <linearGradient id="paint5_linear" x1="87.9999" y1="16" x2="42" y2="62" gradientUnits="userSpaceOnUse">
            <stop stop-opacity="0"/>
            <stop offset="1" stop-opacity="0.02"/>
        </linearGradient>
        <linearGradient id="paint6_linear" x1="24" y1="16" x2="38" y2="30" gradientUnits="userSpaceOnUse">
            <stop stop-opacity="0"/>
            <stop offset="1" stop-opacity="0.02"/>
        </linearGradient>
        <linearGradient id="paint7_linear" x1="24" y1="16" x2="46" y2="38" gradientUnits="userSpaceOnUse">
            <stop stop-opacity="0"/>
            <stop offset="1" stop-opacity="0.02"/>
        </linearGradient>
        <linearGradient id="paint8_linear" x1="24" y1="16" x2="54" y2="46" gradientUnits="userSpaceOnUse">
            <stop stop-opacity="0"/>
            <stop offset="1" stop-opacity="0.02"/>
        </linearGradient>
        <linearGradient id="paint9_linear" x1="24" y1="16.0001" x2="62" y2="54" gradientUnits="userSpaceOnUse">
            <stop stop-opacity="0"/>
            <stop offset="1" stop-opacity="0.02"/>
        </linearGradient>
        <linearGradient id="paint10_linear" x1="24" y1="16" x2="70" y2="62" gradientUnits="userSpaceOnUse">
            <stop stop-opacity="0"/>
            <stop offset="1" stop-opacity="0.02"/>
        </linearGradient>
    </defs>
</svg>
